<?xml version="1.0" encoding="UTF-8"?>
<!DOCTYPE svg  PUBLIC '-//W3C//DTD SVG 1.1//EN'  'http://www.w3.org/Graphics/SVG/1.1/DTD/svg11.dtd'>
<svg version="1.1" xmlns="http://www.w3.org/2000/svg">
<defs>
<font id="Locator-Black" horiz-adv-x="671">
<font-face font-family="r" font-weight="900" ascent="750" bbox="-54 -291 872 929" cap-height="666" descent="-250" panose-1="2 0 9 0 5 0 0 2 0 4" underline-position="-133" underline-thickness="20" unicode-range="U+0020-00FE" units-per-em="1000" x-height="487"/>
<missing-glyph/>
<glyph glyph-name="space" horiz-adv-x="230" unicode=" "/>
<glyph d="M260 516l-46 -274h-78l-47 274v150h171v-150zM263 0h-177v172h177v-172z" glyph-name="exclam" horiz-adv-x="349" unicode="!"/>
<glyph d="M405 362h-113v304h113v-304zM189 362h-113v304h113v-304z" glyph-name="quotedbl" horiz-adv-x="481" unicode='"'/>
<glyph d="M712 487l-23 -96h-129l-26 -116h129l-23 -98h-129l-41 -177h-105l41 177h-137l-41 -177h-105l41 177h-128l22 98h129l26 116h-129l23 96h129l41 179h105l-41 -179h136l42 179h105l-42 -179h130zM455 391h-137l-26 -116h137z" glyph-name="numbersign" horiz-adv-x="742" unicode="#"/>
<glyph d="M591 197q0 -102 -93 -157q-58 -34 -140 -41v-97h-110v98q-96 11 -200 53l34 129q120 -42 231 -42q88 0 103 30q6 11 6 26q0 22 -26 35q-15 8 -111 43q-147 53 -188 124q-22 39 -22 90q0 129 130 166q34 9 75 13v97h110v-95q96 -5 184 -32l-27 -134q-100 21 -201 21 q-83 0 -95 -19q-5 -8 -5 -21q0 -22 27 -37q21 -11 131 -53q116 -44 151 -84q36 -40 36 -113z" glyph-name="dollar" horiz-adv-x="631" unicode="$"/>
<glyph d="M842 172q0 -101 -67 -152q-42 -32 -98 -32q-93 0 -139 78q-27 46 -27 106q0 101 69 151q41 30 97 30q95 0 140 -78q25 -45 25 -103zM367 495q0 -102 -68 -152q-41 -31 -97 -31q-94 0 -139 78q-27 46 -27 105q0 101 69 151q41 30 97 30q95 0 140 -78q25 -45 25 -103z M683 666l-372 -666h-115l373 666h114zM258 495q-2 86 -56 87q-54 -7 -57 -87q0 -74 41 -88q8 -2 16 -2q49 0 55 74q1 8 1 16zM733 172q-2 86 -56 87q-54 -7 -57 -87q0 -74 41 -88q8 -2 16 -2q49 0 55 74q1 8 1 16z" glyph-name="percent" horiz-adv-x="892" unicode="%"/>
<glyph d="M709 0h-191l-40 44q-81 -55 -181 -55q-132 0 -203 85q-48 57 -48 132q1 121 130 173q-50 72 -57 114q-3 14 -3 28q0 117 116 146q36 9 79 9q109 0 159 -67q26 -34 26 -75q0 -89 -89 -153q-19 -14 -41 -25l114 -115q34 61 54 153l121 -31q-25 -129 -82 -217q-1 -1 -1 -2z M388 144q-118 127 -135 146q-41 -26 -42 -82q0 -62 57 -79q16 -4 34 -4q48 0 86 19zM369 522q0 39 -40 47q-8 1 -15 1q-53 -2 -54 -53q1 -48 47 -88q57 41 62 93z" glyph-name="ampersand" horiz-adv-x="740" unicode="&amp;"/>
<glyph d="M189 361h-113v305h113v-305z" glyph-name="quotesingle" horiz-adv-x="265" unicode="'"/>
<glyph d="M333 -101l-101 -53q-156 186 -156 458q0 263 146 454q2 2 3 4l108 -53q-76 -169 -88 -319q-3 -41 -3 -86q0 -174 59 -329q14 -36 32 -76z" glyph-name="parenleft" horiz-adv-x="369" unicode="("/>
<glyph d="M293 304q-1 -272 -156 -458l-101 53q76 169 88 319q3 41 3 86q0 174 -59 329q-14 36 -32 76l108 53q147 -195 149 -458z" glyph-name="parenright" horiz-adv-x="369" unicode=")"/>
<glyph d="M442 411l-55 -93l-104 75l13 -128h-109l13 128l-105 -75l-54 93l117 55l-117 54l54 94l105 -76l-13 128h109l-13 -128l104 76l55 -94l-117 -54z" glyph-name="asterisk" horiz-adv-x="483" unicode="*"/>
<glyph d="M528 180h-178v-180h-119v180h-179v116h179v181h119v-181h178v-116z" glyph-name="plus" horiz-adv-x="580" unicode="+"/>
<glyph d="M239 0l-93 -182h-75l75 182h-84v172h177v-172z" glyph-name="comma" horiz-adv-x="311" unicode=","/>
<glyph d="M336 218h-284v132h284v-132z" glyph-name="hyphen" horiz-adv-x="388" unicode="-"/>
<glyph d="M248 0h-176v172h176v-172z" glyph-name="period" horiz-adv-x="320" unicode="."/>
<glyph d="M475 676l-289 -793h-140l289 793h140z" glyph-name="slash" horiz-adv-x="521" unicode="/"/>
<glyph d="M616 328q0 -158 -85 -253q-77 -86 -198 -86q-149 0 -227 125q-56 90 -56 214q0 158 85 253q77 85 198 85q150 0 227 -125q56 -90 56 -213zM452 328q-7 188 -119 194q-118 -2 -118 -194q1 -194 118 -195q113 0 119 177v18z" glyph-name="zero" horiz-adv-x="666" unicode="0"/>
<glyph d="M375 0h-164v516l-166 -29l-23 131l189 38h164v-656z" glyph-name="one" horiz-adv-x="475" unicode="1"/>
<glyph d="M578 0h-516v36q0 110 46 166q31 39 129 99q9 5 28 17q30 18 46 28q75 47 91 72q9 16 9 34q0 65 -107 70q-11 1 -22 1q-85 0 -186 -25l-27 133q126 35 231 35q188 0 251 -106q25 -44 25 -100q0 -84 -74 -150q-32 -29 -93 -69q-22 -15 -68 -42q-69 -43 -82 -56h319v-143z " glyph-name="two" horiz-adv-x="645" unicode="2"/>
<glyph d="M544 190q0 -102 -104 -158q-82 -43 -204 -43q-101 0 -194 35l28 123q83 -22 165 -22q124 0 139 60q2 8 2 15q0 62 -102 67h-18h-130v131h121q102 1 103 71q-2 64 -132 64q-60 0 -141 -17l-29 121q96 29 188 29q173 0 242 -79q35 -41 35 -97q0 -85 -69 -137 q-10 -7 -19 -12q82 -27 109 -99q10 -26 10 -52z" glyph-name="three" horiz-adv-x="591" unicode="3"/>
<glyph d="M605 135h-92v-135h-158v135h-323v142l302 379h179v-389h92v-132zM355 267v220l-175 -220h175z" glyph-name="four" horiz-adv-x="647" unicode="4"/>
<glyph d="M593 208q0 -106 -90 -167q-77 -52 -201 -52q-119 0 -245 48l38 131q116 -38 207 -38q113 0 125 65q1 7 1 13q0 54 -68 68q-19 4 -42 4q-58 0 -96 -16l-134 72l32 320h428v-142h-284l-9 -110q49 13 105 13q136 0 198 -90q35 -52 35 -119z" glyph-name="five" horiz-adv-x="645" unicode="5"/>
<glyph d="M580 212q0 -101 -81 -166q-71 -57 -172 -57q-178 0 -246 135q-34 69 -34 161q0 195 117 300q92 81 227 81q88 0 162 -19l-24 -133q-60 12 -119 12q-141 0 -177 -112q-7 -24 -11 -53q55 47 140 47q122 0 181 -78q37 -49 37 -118zM415 203q0 54 -60 69q-18 4 -37 4 q-72 0 -91 -49q-5 -12 -5 -26q0 -53 60 -70q18 -5 36 -5q68 0 90 47q7 15 7 30z" glyph-name="six" horiz-adv-x="632" unicode="6"/>
<glyph d="M520 513l-246 -513h-166l244 513h-320v143h488v-143z" glyph-name="seven" horiz-adv-x="542" unicode="7"/>
<glyph d="M575 198q0 -103 -89 -162q-71 -47 -177 -47q-147 0 -221 85q-46 54 -46 124q0 89 81 145q13 8 26 15q-69 56 -70 132q0 107 102 152q55 24 128 24q142 0 200 -80q29 -42 29 -96q-1 -77 -70 -132q90 -46 105 -133q2 -14 2 -27zM412 199q0 46 -46 66q-24 11 -57 11 q-79 0 -99 -52q-5 -13 -5 -25q0 -45 49 -67q25 -10 55 -10q68 0 94 43q9 16 9 34zM386 469q0 50 -43 66q-16 6 -34 6q-61 0 -75 -51q-3 -11 -3 -21q0 -49 44 -69q17 -7 34 -7q46 0 67 37q10 18 10 39z" glyph-name="eight" horiz-adv-x="617" unicode="8"/>
<glyph d="M586 369q0 -197 -119 -301q-91 -79 -225 -79q-93 0 -162 19l24 132q60 -12 119 -12q141 0 177 112q7 24 11 53q-54 -46 -140 -46q-114 0 -176 76q-43 53 -43 128q0 103 85 165q70 50 169 50q177 0 246 -135q34 -69 34 -162zM411 453q0 53 -60 70q-18 5 -36 5 q-68 0 -90 -47q-7 -15 -7 -30q0 -54 60 -69q18 -4 37 -4q72 0 91 49q5 12 5 26z" glyph-name="nine" horiz-adv-x="628" unicode="9"/>
<glyph d="M248 0h-176v172h176v-172zM248 306h-176v171h176v-171z" glyph-name="colon" horiz-adv-x="320" unicode=":"/>
<glyph d="M239 0l-94 -182h-74l75 182h-84v172h177v-172zM239 306h-177v171h177v-171z" glyph-name="semicolon" horiz-adv-x="311" unicode=";"/>
<glyph d="M510 -12l-488 211v83l488 210v-117l-327 -135l327 -135v-117z" glyph-name="less" horiz-adv-x="556" unicode="&lt;"/>
<glyph d="M523 293h-477v121h477v-121zM523 55h-477v120h477v-120z" glyph-name="equal" horiz-adv-x="569" unicode="="/>
<glyph d="M535 199l-489 -210v117l328 134l-328 135v117l489 -210v-83z" glyph-name="greater" horiz-adv-x="557" unicode="&gt;"/>
<glyph d="M553 468q-2 -149 -235 -253l-63 106q80 43 105 70q28 32 28 71q-2 74 -131 75q-84 0 -181 -27l-34 125q107 37 220 41h15q199 0 256 -116q20 -41 20 -92zM386 0h-176v172h176v-172z" glyph-name="question" horiz-adv-x="599" unicode="?"/>
<glyph d="M749 49q-131 -60 -304 -60q-163 0 -273 98q-109 99 -110 246q0 163 103 260q89 83 219 83q133 0 189 -90q28 -46 28 -106v-308h-100v41q-35 -47 -96 -47q-78 0 -117 75q-23 43 -23 95q0 80 50 131q39 38 90 38q68 -1 105 -49v20q-2 111 -126 112q-143 0 -199 -116 q-28 -59 -28 -139q0 -126 92 -198q78 -60 196 -60q150 0 281 49zM499 336q0 62 -39 81q-12 6 -24 6q-42 0 -57 -49q-6 -19 -6 -38q0 -57 35 -79q13 -8 28 -8q44 0 58 51q5 17 5 36z" glyph-name="at" horiz-adv-x="775" unicode="@"/>
<glyph d="M663 0h-169l-45 125h-226l-46 -125h-169l247 666h162zM408 254l-72 243l-73 -243h145z" glyph-name="A" unicode="A"/>
<glyph d="M657 187q0 -88 -64 -143q-52 -44 -126 -44h-381v666h346q129 0 179 -80q23 -39 23 -88q0 -78 -61 -124q-20 -15 -44 -24q109 -32 126 -132q2 -16 2 -31zM486 204q0 55 -55 66q-12 2 -24 2h-150v-136h150q74 7 79 68zM463 469q-2 62 -77 63h-129v-133h130q70 9 76 70z" glyph-name="B" horiz-adv-x="689" unicode="B"/>
<glyph d="M606 16q-83 -27 -191 -27q-188 0 -294 117q-85 94 -85 227q0 146 103 243q107 100 276 100q104 0 191 -28l-27 -141q-79 15 -144 15q-169 0 -215 -112q-14 -35 -14 -77q0 -119 100 -167q53 -25 129 -25q66 0 144 17z" glyph-name="C" unicode="C"/>
<glyph d="M680 333q0 -158 -127 -249q-117 -84 -304 -84h-163v666h163q226 0 344 -118q87 -87 87 -215zM507 333q0 133 -133 169q-43 12 -94 12h-23v-362h23q154 0 205 91q22 38 22 90z" glyph-name="D" horiz-adv-x="706" unicode="D"/>
<glyph d="M585 0h-499v666h499v-148h-328v-101h310v-148h-310v-121h328v-148z" glyph-name="E" horiz-adv-x="641" unicode="E"/>
<glyph d="M615 518h-358v-101h320v-148h-320v-269h-171v666h529v-148z" glyph-name="F" horiz-adv-x="647" unicode="F"/>
<glyph d="M646 15q-98 -26 -216 -26q-210 0 -317 123q-77 91 -77 221q0 169 120 263q103 80 267 80q92 0 190 -22l-21 -141q-87 15 -156 15q-211 0 -228 -166q-1 -15 -1 -29q0 -120 92 -169q48 -25 112 -25q47 0 74 4v197h161v-325z" glyph-name="G" horiz-adv-x="702" unicode="G"/>
<glyph d="M698 0h-171v257h-270v-257h-171v666h171v-256h270v256h171v-666z" glyph-name="H" horiz-adv-x="784" unicode="H"/>
<glyph d="M261 0h-171v666h171v-666z" glyph-name="I" horiz-adv-x="351" unicode="I"/>
<glyph d="M407 217q0 -203 -191 -221q-20 -2 -41 -2h-129v133h123q66 2 67 93v309h-179v137h350v-449z" glyph-name="J" horiz-adv-x="483" unicode="J"/>
<glyph d="M719 0h-227l-235 264v-264h-171v666h171v-252l225 252h227l-315 -323z" glyph-name="K" horiz-adv-x="727" unicode="K"/>
<glyph d="M572 0h-486v666h170v-518h316v-148z" glyph-name="L" horiz-adv-x="590" unicode="L"/>
<glyph d="M804 0h-164v369l-150 -237h-91l-149 237v-369h-164v666h162l197 -320l197 320h162v-666z" glyph-name="M" horiz-adv-x="890" unicode="M"/>
<glyph d="M717 0h-164l-302 404v-404h-165v666h165l302 -403v403h164v-666z" glyph-name="N" horiz-adv-x="803" unicode="N"/>
<glyph d="M719 333q0 -143 -97 -243q-101 -100 -244 -101q-143 0 -242 99q-99 102 -100 245q0 144 98 243q101 99 244 100q143 0 242 -99q99 -100 99 -244zM548 333q0 100 -64 154q-44 37 -106 37q-98 0 -145 -84q-26 -48 -26 -107q0 -101 64 -155q45 -37 107 -37q101 0 146 88 q24 46 24 104z" glyph-name="O" horiz-adv-x="755" unicode="O"/>
<glyph d="M676 442q0 -104 -75 -171q-64 -57 -153 -57h-191v-214h-171v666h362q112 0 178 -81q50 -62 50 -143zM505 442q0 62 -49 81q-15 6 -32 6h-167v-177h167q47 0 70 42q11 22 11 48z" glyph-name="P" horiz-adv-x="694" unicode="P"/>
<glyph d="M718 332q0 -142 -97 -242q-69 -69 -163 -92v-171h-162v171q-128 31 -202 140q-58 88 -58 194q0 143 97 243q101 100 244 101q143 0 241 -99q99 -102 100 -245zM548 332q0 100 -64 155q-45 37 -107 37q-98 0 -145 -84q-26 -48 -26 -108q0 -102 65 -155q44 -36 106 -36 q101 0 147 87q24 46 24 104z" glyph-name="Q" horiz-adv-x="754" unicode="Q"/>
<glyph d="M756 0h-216l-164 227h-119v-227h-171v666h373q122 0 184 -87q39 -56 39 -129q0 -106 -73 -170q-19 -16 -39 -27zM511 446q0 53 -44 74q-18 8 -37 8h-173v-168h173q44 0 69 40q12 22 12 46z" glyph-name="R" horiz-adv-x="772" unicode="R"/>
<glyph d="M620 196q0 -123 -119 -176q-71 -31 -172 -31q-139 0 -281 57l32 132q141 -43 249 -43q99 0 116 34q5 10 5 23q0 21 -38 38q-11 5 -114 44q-126 48 -169 86q-52 49 -52 129q0 130 126 168q62 19 157 19q141 0 244 -33l-23 -138q-100 25 -219 25q-95 0 -109 -22 q-5 -8 -5 -21q0 -22 37 -40q12 -6 130 -51q108 -41 136 -59q62 -40 68 -119q1 -11 1 -22z" glyph-name="S" horiz-adv-x="662" unicode="S"/>
<glyph d="M611 514h-216v-514h-171v514h-216v152h603v-152z" glyph-name="T" horiz-adv-x="619" unicode="T"/>
<glyph d="M694 288q0 -126 -88 -213q-89 -86 -221 -86q-143 0 -232 98q-77 85 -77 201v378h171v-379q0 -106 80 -136q26 -10 58 -10q104 0 131 88q8 27 8 58v379h170v-378z" glyph-name="U" horiz-adv-x="770" unicode="U"/>
<glyph d="M639 666l-225 -666h-182l-226 666h173l144 -463l143 463h173z" glyph-name="V" horiz-adv-x="645" unicode="V"/>
<glyph d="M843 666l-154 -666h-136l-126 381l-124 -381h-137l-154 666h170l74 -352l115 352h114l115 -352l74 352h169z" glyph-name="W" horiz-adv-x="855" unicode="W"/>
<glyph d="M627 0h-188l-124 204l-124 -204h-187l217 336l-212 330h186l120 -196l120 196h188l-214 -330z" glyph-name="X" horiz-adv-x="631" unicode="X"/>
<glyph d="M600 666l-215 -406v-260h-172v260l-216 406h171l131 -255l130 255h171z" glyph-name="Y" horiz-adv-x="597" unicode="Y"/>
<glyph d="M600 0h-554v156l332 362h-325v148h531v-153l-330 -365h346v-148z" glyph-name="Z" horiz-adv-x="636" unicode="Z"/>
<glyph d="M370 -126h-284v916h284v-129h-116v-656h116v-131z" glyph-name="bracketleft" horiz-adv-x="376" unicode="["/>
<glyph d="M475 -117h-140l-289 793h140z" glyph-name="backslash" horiz-adv-x="521" unicode="\"/>
<glyph d="M290 -126h-284v131h116v656h-116v129h284v-916z" glyph-name="bracketright" horiz-adv-x="376" unicode="]"/>
<glyph d="M461 327h-125l-94 221l-95 -221h-125l166 339h108z" glyph-name="asciicircum" horiz-adv-x="483" unicode="^"/>
<glyph d="M474 -60h-474v49h474v-49z" glyph-name="underscore" horiz-adv-x="474" unicode="_"/>
<glyph d="M295 551h-102l-153 136h164z" glyph-name="grave" horiz-adv-x="350" unicode="`"/>
<glyph d="M488 0h-156v50q-51 -58 -137 -58q-88 0 -135 63q-28 38 -28 83q0 112 100 138q27 7 58 7h134v31q0 41 -30 51q-23 8 -70 8q-83 0 -148 -10l-17 112q95 21 182 21q246 -2 247 -190v-306zM324 177v11h-70q-55 -3 -57 -46q2 -41 56 -42q47 0 64 43q7 16 7 34z" glyph-name="a" horiz-adv-x="536" unicode="a"/>
<glyph d="M580 244q0 -124 -72 -196q-57 -56 -138 -56q-77 0 -131 56q-5 5 -9 10v-58h-164v666h164v-237q48 58 123 66q9 1 17 1q109 0 169 -95q41 -68 41 -157zM415 244q0 84 -48 115q-20 12 -43 12q-60 0 -84 -63q-10 -29 -10 -64q0 -84 52 -115q20 -12 42 -12q60 0 82 68 q9 27 9 59z" glyph-name="b" horiz-adv-x="610" unicode="b"/>
<glyph d="M443 472l-30 -114q-46 11 -88 11q-94 0 -122 -73q-9 -24 -9 -52q0 -81 64 -111q29 -14 67 -14q44 0 88 13l29 -115q-59 -25 -131 -25q-143 0 -222 90q-59 68 -59 162q0 124 95 195q76 57 186 57q78 0 132 -24z" glyph-name="c" horiz-adv-x="489" unicode="c"/>
<glyph d="M544 0h-164v58q-48 -59 -125 -65q-8 -1 -15 -1q-109 0 -169 95q-41 68 -41 157q0 124 72 196q57 56 138 56q75 0 130 -56q6 -6 10 -11v237h164v-666zM380 244q0 89 -55 118q-18 9 -39 9q-60 0 -82 -68q-9 -27 -9 -59q0 -84 48 -115q20 -12 43 -12q55 0 80 56q14 31 14 71 z" glyph-name="d" horiz-adv-x="610" unicode="d"/>
<glyph d="M504 202h-315q12 -88 132 -89q63 0 134 16l28 -109q-77 -28 -165 -28q-186 0 -255 118q-33 57 -33 134q0 113 76 187q68 65 169 65q135 0 194 -105q35 -63 35 -152v-37zM350 296q-12 80 -77 81q-63 0 -80 -67q-2 -8 -3 -14h160z" glyph-name="e" horiz-adv-x="542" unicode="e"/>
<glyph d="M380 677l-18 -114q-28 5 -54 5q-54 -2 -55 -62v-31h82v-106h-82v-369h-164v369h-61v106h61v23q0 178 151 192q12 1 24 1q58 0 116 -14z" glyph-name="f" horiz-adv-x="370" unicode="f"/>
<glyph d="M544 67q-2 -237 -277 -238q-91 0 -177 20l17 108q69 -15 139 -15q118 0 132 71q2 12 2 25v41q-48 -59 -125 -65q-8 -1 -15 -1q-114 0 -172 94q-38 62 -38 147q0 128 78 195q55 47 132 47q75 0 130 -56q6 -6 10 -11v58h164v-420zM380 254q0 97 -69 114q-12 3 -25 3 q-66 0 -86 -69q-6 -22 -6 -48q0 -87 57 -110q17 -6 35 -6q65 0 86 63q8 24 8 53z" glyph-name="g" horiz-adv-x="605" unicode="g"/>
<glyph d="M544 0h-164v279q0 56 -43 70q-10 3 -22 3q-51 0 -75 -49q-10 -22 -10 -45v-258h-164v666h158v-250q48 59 125 76q21 4 39 4q125 0 150 -127q6 -29 6 -63v-306z" glyph-name="h" horiz-adv-x="605" unicode="h"/>
<glyph d="M231 0h-165v487h165v-487zM231 568h-165v129h165v-129z" glyph-name="i" horiz-adv-x="297" unicode="i"/>
<glyph d="M232 3q-2 -173 -179 -174q-52 0 -71 4l-2 121q20 -2 40 -2q35 0 43 23q4 15 4 46v466h165v-484zM232 568h-165v129h165v-129z" glyph-name="j" horiz-adv-x="293" unicode="j"/>
<glyph d="M580 0h-187l-163 184v-184h-164v666h164v-357l157 178h189l-214 -241z" glyph-name="k" horiz-adv-x="585" unicode="k"/>
<glyph d="M318 -2q-32 -7 -79 -7q-117 0 -159 85q-19 38 -19 89v501h164v-476q0 -53 18 -64q11 -6 30 -6q23 0 45 3v-125z" glyph-name="l" horiz-adv-x="354" unicode="l"/>
<glyph d="M846 0h-164v279q0 61 -46 71q-8 2 -16 2q-52 0 -74 -51q-8 -21 -8 -43v-258h-164v279q0 59 -44 71q-9 2 -19 2q-52 0 -73 -51q-8 -21 -8 -43v-258h-164v487h158v-71q54 67 133 78q13 2 25 2q86 0 127 -65q4 -6 7 -11q52 59 137 73q19 3 37 3q125 0 150 -127q6 -29 6 -63 v-306z" glyph-name="m" horiz-adv-x="907" unicode="m"/>
<glyph d="M545 0h-164v279q0 56 -43 70q-10 3 -22 3q-51 0 -75 -49q-10 -22 -10 -45v-258h-165v487h159v-71q48 59 125 76q21 4 39 4q125 0 150 -127q6 -29 6 -63v-306z" glyph-name="n" horiz-adv-x="606" unicode="n"/>
<glyph d="M542 244q0 -114 -79 -187q-72 -65 -177 -65q-130 0 -203 93q-53 69 -53 159q0 114 79 187q72 65 177 65q130 0 203 -93q53 -69 53 -159zM377 244q0 97 -58 121q-16 6 -33 6q-66 0 -86 -74q-6 -24 -6 -53q0 -94 56 -120q17 -7 36 -7q66 0 85 75q6 24 6 52z" glyph-name="o" horiz-adv-x="572" unicode="o"/>
<glyph d="M580 244q0 -124 -72 -196q-57 -56 -138 -56q-75 0 -130 56q-6 6 -10 11v-221h-164v649h164v-58q48 58 123 66q9 1 17 1q109 0 169 -95q41 -68 41 -157zM416 244q0 82 -48 114q-20 13 -44 13q-55 0 -80 -56q-14 -31 -14 -71q0 -89 55 -118q18 -9 39 -9q60 0 83 67 q9 27 9 60z" glyph-name="p" horiz-adv-x="610" unicode="p"/>
<glyph d="M544 -162h-164v221q-48 -58 -123 -66q-9 -1 -17 -1q-109 0 -169 95q-41 68 -41 157q0 124 72 196q57 56 138 56q75 0 130 -56q6 -6 10 -11v58h164v-649zM380 244q0 84 -52 115q-20 12 -42 12q-60 0 -83 -67q-9 -27 -9 -60q0 -82 48 -114q20 -13 44 -13q60 0 84 63 q10 29 10 64z" glyph-name="q" horiz-adv-x="610" unicode="q"/>
<glyph d="M383 353q-12 2 -31 2q-57 0 -94 -56q-27 -41 -27 -89v-210h-165v487h161v-77q33 70 95 83q13 3 25 3q10 0 36 -3v-140z" glyph-name="r" horiz-adv-x="403" unicode="r"/>
<glyph d="M470 147q0 -84 -86 -127q-57 -28 -133 -28q-97 0 -215 44l30 112q117 -35 185 -35q57 3 59 25q0 15 -26 27q-8 3 -30 12q-122 50 -153 73q-49 37 -49 100q0 119 139 141q35 5 77 5q97 0 174 -24q6 -2 11 -4l-25 -114q-84 21 -158 21q-55 -4 -58 -19q0 -16 24 -27 q10 -5 40 -16q24 -9 38 -15q98 -38 126 -64q30 -32 30 -87z" glyph-name="s" horiz-adv-x="501" unicode="s"/>
<glyph d="M334 -2q-26 -6 -72 -6q-124 0 -166 81q-16 33 -16 75v237h-62v102h62v136h164v-136h80v-102h-80v-221q10 -45 52 -48q15 0 24 2z" glyph-name="t" horiz-adv-x="370" unicode="t"/>
<glyph d="M538 0h-158v71q-47 -58 -125 -75q-21 -4 -40 -4q-127 0 -151 130q-5 28 -5 59v306h164v-279q0 -56 43 -70q10 -3 22 -3q51 0 75 49q10 22 10 45v258h165v-487z" glyph-name="u" horiz-adv-x="604" unicode="u"/>
<glyph d="M519 487l-174 -487h-164l-173 487h159l96 -319l97 319h159z" glyph-name="v" horiz-adv-x="527" unicode="v"/>
<glyph d="M725 487l-128 -487h-161l-71 297l-75 -297h-160l-125 487h150l61 -310l77 310h143l75 -311l60 311h154z" glyph-name="w" horiz-adv-x="730" unicode="w"/>
<glyph d="M493 0h-167l-74 122l-71 -122h-169l157 249l-154 238h169l68 -120l70 120h168l-154 -238z" glyph-name="x" horiz-adv-x="505" unicode="x"/>
<glyph d="M513 487l-232 -650h-160l58 164l-177 486h159l99 -309l94 309h159z" glyph-name="y" horiz-adv-x="520" unicode="y"/>
<glyph d="M497 0h-441v118l238 251h-217v118h417v-117l-245 -250h248v-120z" glyph-name="z" horiz-adv-x="550" unicode="z"/>
<glyph d="M375 -143h-161q-98 0 -113 91q-3 15 -3 31v203q0 68 -29 81q-13 5 -30 5h-17v112h17q44 0 54 37q5 19 5 50v201q0 97 77 117q18 5 39 5h161v-118h-68q-36 0 -40 -31q-1 -8 -1 -16v-137q0 -97 -71 -140q-39 -22 -92 -24q113 -4 150 -93q13 -33 13 -71v-138q0 -38 24 -44 q8 -2 17 -2h68v-119z" glyph-name="braceleft" horiz-adv-x="378" unicode="{"/>
<glyph d="M211 -200h-115v1000h115v-1000z" glyph-name="bar" horiz-adv-x="307" unicode="|"/>
<glyph d="M356 268h-17q-44 0 -54 -36q-5 -19 -5 -50v-203q0 -97 -77 -117q-18 -5 -39 -5h-161v119h68q35 0 40 28q1 8 1 18v138q0 99 74 141q38 21 89 23q-112 3 -149 91q-14 34 -14 73v137q0 39 -24 45q-8 2 -17 2h-68v118h161q98 0 113 -91q3 -15 3 -31v-201q0 -69 29 -82 q13 -5 30 -5h17v-112z" glyph-name="braceright" horiz-adv-x="378" unicode="}"/>
<glyph d="M522 352q-58 -182 -166 -185q-46 0 -115 42q-49 29 -68 29q-40 0 -68 -70q-1 -3 -2 -5l-85 35q56 184 165 185q46 0 116 -42q49 -29 68 -29q39 0 65 66q2 4 4 9z" glyph-name="asciitilde" horiz-adv-x="540" unicode="~"/>
<glyph glyph-name="nbspace" horiz-adv-x="230" unicode=" "/>
<glyph d="M260 0h-171v150l46 274h78l47 -274v-150zM263 495h-177v171h177v-171z" glyph-name="exclamdown" horiz-adv-x="349" unicode="¡"/>
<glyph d="M443 17q-55 -23 -127 -25v-63h-28v64q-138 8 -209 101q-49 65 -49 150q0 123 93 194q68 51 165 57v63h28v-62q79 -2 127 -24l-30 -114q-46 11 -87 11q-2 0 -6 -1h-4v-249h10q44 0 87 13zM288 123v242q-76 -17 -90 -91q-3 -15 -3 -30q0 -84 68 -113q12 -5 25 -8z" glyph-name="cent" horiz-adv-x="489" unicode="¢"/>
<glyph d="M652 643l-23 -136q-95 22 -197 22q-105 0 -119 -34q-3 -8 -3 -17q0 -52 25 -113h195v-81h-184v-4q4 -77 -42 -145h312v-135h-554v135h68q44 73 40 147v2h-87v81h77q-23 72 -23 122q0 127 116 167q65 22 171 22q112 0 219 -30q5 -2 9 -3z" glyph-name="sterling" horiz-adv-x="718" unicode="£"/>
<glyph d="M674 18q-89 -29 -198 -29q-168 0 -275 107q-61 62 -85 145h-98v66h87q-1 9 -1 25q0 17 1 25h-87v67h98q36 128 154 198q91 54 206 54q110 0 198 -27l-27 -142q-71 15 -144 15q-156 -1 -208 -98h144v-67h-163q-2 -16 -2 -25q0 -10 2 -25h163v-66h-144q53 -99 208 -100 q66 0 144 19z" glyph-name="currency" horiz-adv-x="724" unicode="¤"/>
<glyph d="M602 666l-147 -276h82v-90h-130l-21 -40v-17h151v-91h-151v-152h-173v152h-153v91h153v17l-19 40h-134v90h84l-147 276h171l132 -256l131 256h171z" glyph-name="yen" horiz-adv-x="599" unicode="¥"/>
<glyph d="M211 396h-115v404h115v-404zM211 -200h-115v404h115v-404z" glyph-name="brokenbar" horiz-adv-x="307" unicode="¦"/>
<glyph d="M546 8q0 -99 -100 -147q-63 -30 -150 -30q-123 0 -250 48l28 111q121 -37 220 -37q104 5 109 51q0 21 -31 35q-13 6 -52 19q-29 11 -46 17q-128 47 -169 98q-33 41 -33 101q1 84 60 117q-60 43 -60 118q0 126 133 156q48 11 112 11q129 0 212 -29q2 -1 3 -1l-19 -119 q-89 25 -194 25q-88 0 -101 -21q-3 -7 -3 -15q0 -22 34 -38q4 -2 122 -47q101 -39 131 -63q44 -37 44 -101q-1 -86 -69 -132q58 -32 67 -95q2 -15 2 -32zM403 256q0 22 -32 36q-2 1 -105 38q-16 6 -23 9q-26 -19 -27 -57q0 -32 36 -53q21 -11 71 -31l9 -3q12 -5 18 -7 q50 24 53 68z" glyph-name="section" horiz-adv-x="592" unicode="§"/>
<glyph d="M364 558h-119v125h119v-125zM175 558h-119v125h119v-125z" glyph-name="dieresis" horiz-adv-x="420" unicode="¨"/>
<glyph d="M688 333q0 -144 -93 -243q-95 -101 -237 -101q-147 0 -242 106q-88 99 -88 238q0 144 93 243q95 100 237 100q147 0 242 -105q88 -99 88 -238zM621 333q0 117 -75 199q-76 81 -188 81q-127 0 -203 -99q-60 -79 -60 -181q0 -117 74 -199q76 -82 189 -82q127 0 203 100 q60 79 60 181zM483 490l-15 -72q-42 11 -73 11q-99 0 -113 -74q-2 -11 -2 -22q0 -75 73 -93q20 -4 42 -4q38 0 72 10l15 -70q-48 -18 -101 -18q-98 0 -152 70q-36 46 -36 105q0 86 69 137q51 36 119 36q52 0 102 -16z" glyph-name="copyright" horiz-adv-x="716" unicode="©"/>
<glyph d="M347 342h-103v34q-36 -39 -93 -39q-65 0 -96 49q-14 23 -14 49q0 85 84 96q11 1 22 1h90v21q0 29 -23 35q-15 4 -44 4q-54 0 -102 -6l-8 79q59 11 121 11q165 -2 166 -127v-207zM237 462v5h-47q-38 -2 -39 -29q2 -27 39 -28q35 0 45 35q2 8 2 17z" glyph-name="ordfeminine" horiz-adv-x="398" unicode="ª"/>
<glyph d="M566 64l-68 -64l-229 243l228 244l69 -64l-169 -179zM322 64l-68 -64l-228 243l228 244l68 -64l-168 -179z" glyph-name="guillemotleft" horiz-adv-x="642" unicode="«"/>
<glyph d="M475 0h-120v179h-299v117h419v-296z" glyph-name="logicalnot" horiz-adv-x="561" unicode="¬"/>
<glyph d="M689 333q0 -144 -93 -243q-95 -101 -237 -101q-146 0 -242 105q-89 99 -89 239q0 143 93 242q95 101 238 101q147 0 242 -105q88 -99 88 -238zM620 333q0 117 -74 199q-75 81 -187 81q-127 0 -203 -99q-60 -79 -60 -181q0 -116 75 -199q75 -82 188 -82q127 0 202 100 q59 79 59 181zM555 163h-108l-83 115h-60v-115h-87v337h191q61 0 94 -50q19 -29 19 -62q0 -60 -52 -93q-5 -2 -8 -4zM431 388q0 31 -28 41q-7 2 -14 2h-85v-86h85q27 0 38 25q4 9 4 18z" glyph-name="registered" horiz-adv-x="717" unicode="®"/>
<glyph d="M340 589h-284v67h284v-67z" glyph-name="macron" horiz-adv-x="396" unicode="¯"/>
<glyph d="M258 568q0 -59 -49 -91q-27 -18 -59 -18q-58 0 -90 49q-18 28 -18 60q0 58 48 90q28 18 60 18q58 0 90 -48q18 -28 18 -60zM216 568q0 40 -36 59q-15 7 -30 7q-39 0 -58 -34q-9 -15 -9 -32q0 -40 37 -58q15 -7 30 -7q40 0 58 34q8 15 8 31z" glyph-name="degree" horiz-adv-x="300" unicode="°"/>
<glyph d="M529 0h-477v101h179v79h-179v116h179v181h119v-181h179v-116h-179v-79h179v-101z" glyph-name="plusminus" horiz-adv-x="581" unicode="±"/>
<glyph d="M666 0h-167v167h-166v166h-167v167h167v-167h166v-166h167v-167zM666 333h-167v167h167v-167zM333 0h-167v167h167v-167zM499 500h-166v166h166v-166zM166 167h-166v166h166v-166zM166 500h-166v166h166v-166z" glyph-name="twosuperior" horiz-adv-x="666" unicode="²"/>
<glyph d="M666 0h-167v167h-166v166h-167v167h167v-167h166v-166h167v-167zM666 333h-167v167h167v-167zM333 0h-167v167h167v-167zM499 500h-166v166h166v-166zM166 167h-166v166h166v-166zM166 500h-166v166h166v-166z" glyph-name="threesuperior" horiz-adv-x="666" unicode="³"/>
<glyph d="M310 687l-153 -136h-102l91 136h164z" glyph-name="acute" horiz-adv-x="350" unicode="´"/>
<glyph d="M538 0h-159v71q-50 -60 -129 -76q-17 -3 -33 -3v-155h-158v650h164v-279q0 -56 43 -70q10 -3 22 -3q51 0 75 49q10 22 10 45v258h165v-487z" glyph-name="mu" horiz-adv-x="604" unicode="µ"/>
<glyph d="M391 0h-75v621h-65v-621h-74v344q-78 0 -127 61q-34 45 -34 100q0 78 61 127q45 34 100 34h214v-666z" glyph-name="paragraph" horiz-adv-x="477" unicode="¶"/>
<glyph d="M248 218h-176v172h176v-172z" glyph-name="periodcentered" horiz-adv-x="320" unicode="·"/>
<glyph d="M331 -178q0 -63 -72 -94q-43 -19 -99 -19t-104 16l19 63q34 -9 74 -9q70 0 76 39q1 4 1 7q-2 34 -59 35q-8 0 -32 -1q-33 -1 -54 -2l35 153h87q-8 -25 -25 -81q12 1 26 1q92 0 119 -63q8 -21 8 -45z" glyph-name="cedilla" horiz-adv-x="387" unicode="¸"/>
<glyph d="M666 0h-167v167h-166v166h-167v167h167v-167h166v-166h167v-167zM666 333h-167v167h167v-167zM333 0h-167v167h167v-167zM499 500h-166v166h166v-166zM166 167h-166v166h166v-166zM166 500h-166v166h166v-166z" glyph-name="onesuperior" horiz-adv-x="666" unicode="¹"/>
<glyph d="M382 506q0 -78 -62 -129q-49 -40 -114 -40q-88 0 -140 67q-35 46 -35 102q0 79 62 130q49 40 113 40q88 0 140 -67q36 -46 36 -103zM271 506q0 68 -45 83q-10 3 -20 3q-49 0 -62 -54q-3 -15 -3 -32q0 -69 46 -82q10 -3 19 -3q49 0 62 55q3 14 3 30z" glyph-name="ordmasculine" horiz-adv-x="413" unicode="º"/>
<glyph d="M615 243l-228 -243l-68 64l168 180l-168 179l68 64zM372 243l-229 -243l-67 64l168 180l-168 179l68 64z" glyph-name="guillemotright" horiz-adv-x="641" unicode="»"/>
<glyph d="M666 0h-167v167h-166v166h-167v167h167v-167h166v-166h167v-167zM666 333h-167v167h167v-167zM333 0h-167v167h167v-167zM499 500h-166v166h166v-166zM166 167h-166v166h166v-166zM166 500h-166v166h166v-166z" glyph-name="onequarter" horiz-adv-x="666" unicode="¼"/>
<glyph d="M666 0h-167v167h-166v166h-167v167h167v-167h166v-166h167v-167zM666 333h-167v167h167v-167zM333 0h-167v167h167v-167zM499 500h-166v166h166v-166zM166 167h-166v166h166v-166zM166 500h-166v166h166v-166z" glyph-name="onehalf" horiz-adv-x="666" unicode="½"/>
<glyph d="M666 0h-167v167h-166v166h-167v167h167v-167h166v-166h167v-167zM666 333h-167v167h167v-167zM333 0h-167v167h167v-167zM499 500h-166v166h166v-166zM166 167h-166v166h166v-166zM166 500h-166v166h166v-166z" glyph-name="threequarters" horiz-adv-x="666" unicode="¾"/>
<glyph d="M557 30q-107 -37 -220 -41h-15q-199 0 -256 116q-20 41 -20 92q2 149 235 253l63 -106q-80 -43 -105 -70q-28 -32 -28 -71q2 -74 131 -75q84 0 181 27zM389 494h-176v172h176v-172z" glyph-name="questiondown" horiz-adv-x="599" unicode="¿"/>
<glyph d="M663 0h-169l-45 125h-226l-46 -125h-169l247 666h162zM382 718h-102l-153 136h164zM408 254l-72 243l-73 -243h145z" glyph-name="Agrave" unicode="À"/>
<glyph d="M663 0h-169l-45 125h-226l-46 -125h-169l247 666h162zM544 854l-152 -136h-103l91 136h164zM408 254l-72 243l-73 -243h145z" glyph-name="Aacute" unicode="Á"/>
<glyph d="M663 0h-169l-45 125h-226l-46 -125h-169l247 666h162zM508 709h-125l-47 60l-49 -60h-124l118 139h107zM408 254l-72 243l-73 -243h145z" glyph-name="Acircumflex" unicode="Â"/>
<glyph d="M663 0h-169l-45 125h-226l-46 -125h-169l247 666h162zM501 832q-37 -114 -103 -115q-28 0 -90 30q-29 14 -41 14q-27 -1 -44 -47l-53 22q35 115 103 116q28 0 91 -31q29 -14 41 -14q26 1 43 47zM408 254l-72 243l-73 -243h145z" glyph-name="Atilde" unicode="Ã"/>
<glyph d="M663 0h-169l-45 125h-226l-46 -125h-169l247 666h162zM408 254l-72 243l-73 -243h145zM490 718h-120v125h120v-125zM300 718h-119v125h119v-125z" glyph-name="Adieresis" unicode="Ä"/>
<glyph d="M663 0h-169l-45 125h-226l-46 -125h-169l247 666h162zM451 813q0 -62 -51 -96q-29 -19 -64 -19q-61 0 -96 50q-20 30 -20 65q0 61 51 96q30 20 65 20q61 0 95 -51q20 -30 20 -65zM408 254l-72 243l-73 -243h145zM389 813q0 41 -32 55q-10 4 -21 4q-38 0 -50 -39 q-3 -10 -3 -20q0 -39 31 -53q10 -5 22 -5q39 0 50 39q3 10 3 19z" glyph-name="Aring" unicode="Å"/>
<glyph d="M872 0h-433l-25 124h-190l-46 -124h-170l247 666h617v-148h-378l23 -101h320v-148h-283l28 -121h290v-148zM387 254l-48 243l-75 -243h123z" glyph-name="AE" horiz-adv-x="928" unicode="Æ"/>
<glyph d="M557 -178q0 -63 -72 -94q-43 -19 -99 -19t-104 16l19 63q34 -9 74 -9q70 0 76 39q1 4 1 7q-2 34 -59 35q-8 0 -32 -1q-33 -1 -54 -2l31 138q-163 25 -246 147q-56 84 -56 191q0 146 103 243q107 100 276 100q104 0 191 -28l-27 -141q-79 15 -144 15q-169 0 -215 -112 q-14 -35 -14 -77q0 -119 100 -167q53 -25 129 -25q66 0 144 17l27 -142q-79 -25 -184 -27q-11 -33 -18 -60q12 1 26 1q92 0 119 -63q8 -21 8 -45z" glyph-name="Ccedilla" horiz-adv-x="657" unicode="Ç"/>
<glyph d="M585 0h-499v666h499v-148h-328v-101h310v-148h-310v-121h328v-148zM399 718h-102l-153 136h164z" glyph-name="Egrave" horiz-adv-x="641" unicode="È"/>
<glyph d="M585 0h-499v666h499v-148h-328v-101h310v-148h-310v-121h328v-148zM522 854l-153 -136h-102l91 136h164z" glyph-name="Eacute" horiz-adv-x="641" unicode="É"/>
<glyph d="M585 0h-499v666h499v-148h-328v-101h310v-148h-310v-121h328v-148zM498 709h-125l-47 60l-49 -60h-124l118 139h107z" glyph-name="Ecircumflex" horiz-adv-x="641" unicode="Ê"/>
<glyph d="M585 0h-499v666h499v-148h-328v-101h310v-148h-310v-121h328v-148zM492 718h-120v125h120v-125zM302 718h-119v125h119v-125z" glyph-name="Edieresis" horiz-adv-x="641" unicode="Ë"/>
<glyph d="M261 0h-171v666h171v-666zM221 718h-103l-152 136h164z" glyph-name="Igrave" horiz-adv-x="357" unicode="Ì"/>
<glyph d="M261 0h-171v666h171v-666zM382 854l-152 -136h-103l91 136h164z" glyph-name="Iacute" horiz-adv-x="357" unicode="Í"/>
<glyph d="M261 0h-171v666h171v-666zM351 709h-125l-47 60l-49 -60h-124l118 139h107z" glyph-name="Icircumflex" horiz-adv-x="357" unicode="Î"/>
<glyph d="M260 0h-171v666h171v-666zM332 718h-119v125h119v-125zM143 718h-119v125h119v-125z" glyph-name="Idieresis" horiz-adv-x="357" unicode="Ï"/>
<glyph d="M717 333q0 -158 -127 -249q-117 -84 -304 -84h-163v279h-87v108h87v279h163q226 0 344 -118q87 -87 87 -215zM544 333q0 133 -133 169q-43 12 -94 12h-23v-127h120v-108h-120v-127h23q154 0 205 91q22 38 22 90z" glyph-name="Eth" horiz-adv-x="743" unicode="Ð"/>
<glyph d="M717 0h-164l-302 404v-404h-165v666h165l302 -403v403h164v-666zM576 832q-37 -114 -103 -115q-28 0 -90 30q-29 14 -41 14q-27 -1 -44 -47l-53 22q35 115 103 116q28 0 91 -31q29 -14 41 -14q26 1 43 47z" glyph-name="Ntilde" horiz-adv-x="803" unicode="Ñ"/>
<glyph d="M719 333q0 -143 -97 -243q-101 -100 -244 -101q-143 0 -242 99q-99 102 -100 245q0 144 98 243q101 99 244 100q143 0 242 -99q99 -100 99 -244zM548 333q0 100 -64 154q-44 37 -106 37q-98 0 -145 -84q-26 -48 -26 -107q0 -101 64 -155q45 -37 107 -37q101 0 146 88 q24 46 24 104zM424 718h-103l-152 136h164z" glyph-name="Ograve" horiz-adv-x="755" unicode="Ò"/>
<glyph d="M719 333q0 -143 -97 -243q-101 -100 -244 -101q-143 0 -242 99q-99 102 -100 245q0 144 98 243q101 99 244 100q143 0 242 -99q99 -100 99 -244zM548 333q0 100 -64 154q-44 37 -106 37q-98 0 -145 -84q-26 -48 -26 -107q0 -101 64 -155q45 -37 107 -37q101 0 146 88 q24 46 24 104zM589 854l-153 -136h-102l91 136h164z" glyph-name="Oacute" horiz-adv-x="755" unicode="Ó"/>
<glyph d="M719 333q0 -143 -97 -243q-101 -100 -244 -101q-143 0 -242 99q-99 102 -100 245q0 144 98 243q101 99 244 100q143 0 242 -99q99 -100 99 -244zM548 333q0 100 -64 154q-44 37 -106 37q-98 0 -145 -84q-26 -48 -26 -107q0 -101 64 -155q45 -37 107 -37q101 0 146 88 q24 46 24 104zM550 709h-125l-48 60l-49 -60h-123l117 139h108z" glyph-name="Ocircumflex" horiz-adv-x="755" unicode="Ô"/>
<glyph d="M719 333q0 -143 -97 -243q-101 -100 -244 -101q-143 0 -242 99q-99 102 -100 245q0 144 98 243q101 99 244 100q143 0 242 -99q99 -100 99 -244zM548 333q0 100 -64 154q-44 37 -106 37q-98 0 -145 -84q-26 -48 -26 -107q0 -101 64 -155q45 -37 107 -37q101 0 146 88 q24 46 24 104zM543 832q-37 -114 -103 -115q-28 0 -90 30q-29 14 -41 14q-27 -1 -44 -47l-53 22q35 115 103 116q28 0 91 -31q29 -14 41 -14q26 1 43 47z" glyph-name="Otilde" horiz-adv-x="755" unicode="Õ"/>
<glyph d="M719 333q0 -143 -97 -243q-101 -100 -244 -101q-143 0 -242 99q-99 102 -100 245q0 144 98 243q101 99 244 100q143 0 242 -99q99 -100 99 -244zM548 333q0 100 -64 154q-44 37 -106 37q-98 0 -145 -84q-26 -48 -26 -107q0 -101 64 -155q45 -37 107 -37q101 0 146 88 q24 46 24 104zM532 718h-120v125h120v-125zM342 718h-119v125h119v-125z" glyph-name="Odieresis" horiz-adv-x="755" unicode="Ö"/>
<glyph d="M462 118l-83 -84l-128 126l-126 -126l-83 84l126 126l-126 127l83 84l126 -126l128 126l83 -84l-126 -127z" glyph-name="multiply" horiz-adv-x="504" unicode="×"/>
<glyph d="M728 333q0 -139 -97 -239q-97 -99 -234 -105h-15q-127 1 -223 80l-81 -80l-42 41l82 81q-82 97 -82 222q0 139 97 238t235 105h14q128 -1 223 -81l81 81l42 -41l-82 -81q82 -97 82 -221zM496 485q-45 38 -114 38q-109 0 -152 -90q-21 -44 -21 -100q0 -64 23 -107z M556 333q0 57 -24 105l-263 -258q45 -38 113 -38q108 0 152 89q22 45 22 102z" glyph-name="Oslash" horiz-adv-x="764" unicode="Ø"/>
<glyph d="M694 288q0 -126 -88 -213q-89 -86 -221 -86q-143 0 -232 98q-77 85 -77 201v378h171v-379q0 -106 80 -136q26 -10 58 -10q104 0 131 88q8 27 8 58v379h170v-378zM434 718h-102l-153 136h164z" glyph-name="Ugrave" horiz-adv-x="770" unicode="Ù"/>
<glyph d="M694 288q0 -126 -88 -213q-89 -86 -221 -86q-143 0 -232 98q-77 85 -77 201v378h171v-379q0 -106 80 -136q26 -10 58 -10q104 0 131 88q8 27 8 58v379h170v-378zM593 854l-153 -136h-102l91 136h164z" glyph-name="Uacute" horiz-adv-x="770" unicode="Ú"/>
<glyph d="M694 288q0 -126 -88 -213q-89 -86 -221 -86q-143 0 -232 98q-77 85 -77 201v378h171v-379q0 -106 80 -136q26 -10 58 -10q104 0 131 88q8 27 8 58v379h170v-378zM558 709h-125l-47 60l-49 -60h-125l118 139h107z" glyph-name="Ucircumflex" horiz-adv-x="770" unicode="Û"/>
<glyph d="M694 288q0 -126 -88 -213q-89 -86 -221 -86q-143 0 -232 98q-77 85 -77 201v378h171v-379q0 -106 80 -136q26 -10 58 -10q104 0 131 88q8 27 8 58v379h170v-378zM539 718h-119v125h119v-125zM350 718h-119v125h119v-125z" glyph-name="Udieresis" horiz-adv-x="770" unicode="Ü"/>
<glyph d="M600 666l-215 -406v-260h-172v260l-216 406h171l131 -255l130 255h171zM502 854l-153 -136h-102l91 136h164z" glyph-name="Yacute" horiz-adv-x="597" unicode="Ý"/>
<glyph d="M675 341q0 -105 -75 -172q-63 -57 -152 -57h-191v-112h-171v666h171v-101h191q113 0 178 -82q49 -61 49 -142zM505 341q0 60 -48 80q-16 7 -34 7h-166v-177h166q47 0 70 42q12 22 12 48z" glyph-name="Thorn" horiz-adv-x="693" unicode="Þ"/>
<glyph d="M624 144q0 -98 -95 -136q-48 -19 -111 -19q-58 0 -114 23q-4 1 -6 2l27 109q46 -17 91 -17q46 3 49 28q0 18 -28 36q-10 6 -25 14q-96 52 -108 117q-3 15 -3 32q0 35 43 80q39 42 47 61q6 14 6 27q-4 62 -74 64q-46 0 -58 -38q-3 -10 -3 -20v-507h-166v369h-60v104h60v31 q0 105 92 156q58 31 135 31q137 0 203 -81q36 -45 36 -98q0 -70 -56 -126q-32 -32 -36 -40q-3 -7 -3 -13q2 -23 30 -38q77 -40 99 -64q28 -33 28 -87z" glyph-name="germandbls" horiz-adv-x="660" unicode="ß"/>
<glyph d="M488 0h-156v50q-51 -58 -137 -58q-88 0 -135 63q-28 38 -28 83q0 112 100 138q27 7 58 7h134v31q0 41 -30 51q-23 8 -70 8q-83 0 -148 -10l-17 112q95 21 182 21q246 -2 247 -190v-306zM324 177v11h-70q-55 -3 -57 -46q2 -41 56 -42q47 0 64 43q7 16 7 34zM301 551h-102 l-153 136h164z" glyph-name="agrave" horiz-adv-x="536" unicode="à"/>
<glyph d="M488 0h-156v50q-51 -58 -137 -58q-88 0 -135 63q-28 38 -28 83q0 112 100 138q27 7 58 7h134v31q0 41 -30 51q-23 8 -70 8q-83 0 -148 -10l-17 112q95 21 182 21q246 -2 247 -190v-306zM324 177v11h-70q-55 -3 -57 -46q2 -41 56 -42q47 0 64 43q7 16 7 34zM439 687 l-153 -136h-102l91 136h164z" glyph-name="aacute" horiz-adv-x="536" unicode="á"/>
<glyph d="M488 0h-156v50q-51 -58 -137 -58q-88 0 -135 63q-28 38 -28 83q0 112 100 138q27 7 58 7h134v31q0 41 -30 51q-23 8 -70 8q-83 0 -148 -10l-17 112q95 21 182 21q246 -2 247 -190v-306zM324 177v11h-70q-55 -3 -57 -46q2 -41 56 -42q47 0 64 43q7 16 7 34zM434 549h-125 l-48 59l-49 -59h-123l117 138h108z" glyph-name="acircumflex" horiz-adv-x="536" unicode="â"/>
<glyph d="M488 0h-156v50q-51 -58 -137 -58q-88 0 -135 63q-28 38 -28 83q0 112 100 138q27 7 58 7h134v31q0 41 -30 51q-23 8 -70 8q-83 0 -148 -10l-17 112q95 21 182 21q246 -2 247 -190v-306zM324 177v11h-70q-55 -3 -57 -46q2 -41 56 -42q47 0 64 43q7 16 7 34zM438 665 q-37 -114 -103 -115q-28 0 -90 30q-29 14 -41 14q-27 -1 -44 -47l-53 22q35 115 103 116q28 0 91 -31q29 -14 41 -14q26 1 43 47z" glyph-name="atilde" horiz-adv-x="536" unicode="ã"/>
<glyph d="M488 0h-156v50q-51 -58 -137 -58q-88 0 -135 63q-28 38 -28 83q0 112 100 138q27 7 58 7h134v31q0 41 -30 51q-23 8 -70 8q-83 0 -148 -10l-17 112q95 21 182 21q246 -2 247 -190v-306zM324 177v11h-70q-55 -3 -57 -46q2 -41 56 -42q47 0 64 43q7 16 7 34zM415 558h-119 v125h119v-125zM226 558h-119v125h119v-125z" glyph-name="adieresis" horiz-adv-x="536" unicode="ä"/>
<glyph d="M488 0h-156v50q-51 -58 -137 -58q-88 0 -135 63q-28 38 -28 83q0 112 100 138q27 7 58 7h134v31q0 41 -30 51q-23 8 -70 8q-83 0 -148 -10l-17 112q95 21 182 21q246 -2 247 -190v-306zM324 177v11h-70q-55 -3 -57 -46q2 -41 56 -42q47 0 64 43q7 16 7 34zM372 648 q0 -61 -51 -95q-30 -20 -65 -20q-62 0 -96 51q-19 29 -19 64q0 61 50 96q30 20 65 20q61 0 96 -51q20 -30 20 -65zM310 648q0 40 -31 54q-11 5 -23 5q-39 0 -50 -40q-2 -10 -2 -19q0 -41 31 -54q10 -4 21 -4q38 0 51 37q3 11 3 21z" glyph-name="aring" horiz-adv-x="536" unicode="å"/>
<glyph d="M803 202h-315v-2q13 -86 132 -87q63 0 134 16l28 -110q-74 -27 -165 -27q-124 1 -200 57q-65 -57 -166 -57q-138 0 -193 76q-26 35 -26 80q2 134 158 135h134v31q0 41 -30 51q-23 8 -70 8q-83 0 -148 -10l-16 112q95 21 181 21q121 -1 185 -48q63 48 148 48 q135 0 194 -105q35 -63 35 -152v-37zM649 296q-12 80 -77 81q-63 0 -80 -67q-2 -8 -3 -14h160zM324 178v10h-70q-56 -2 -57 -42q2 -45 56 -46q47 0 65 44q6 16 6 34z" glyph-name="ae" horiz-adv-x="841" unicode="æ"/>
<glyph d="M443 -178q0 -63 -72 -94q-43 -19 -99 -19t-104 16l19 63q34 -9 74 -9q70 0 76 39q1 4 1 7q-2 34 -59 35q-8 0 -32 -1q-33 -1 -54 -2l33 145q-121 29 -170 129q-26 52 -26 113q0 124 95 195q76 57 186 57q78 0 132 -24l-30 -114q-46 11 -88 11q-94 0 -122 -73 q-9 -24 -9 -52q0 -81 64 -111q29 -14 67 -14q44 0 88 13l29 -115q-59 -25 -131 -25h-2q-18 -60 -19 -63q12 1 26 1q92 0 119 -63q8 -21 8 -45z" glyph-name="ccedilla" horiz-adv-x="489" unicode="ç"/>
<glyph d="M504 202h-315q12 -88 132 -89q63 0 134 16l28 -109q-77 -28 -165 -28q-186 0 -255 118q-33 57 -33 134q0 113 76 187q68 65 169 65q135 0 194 -105q35 -63 35 -152v-37zM350 296q-12 80 -77 81q-63 0 -80 -67q-2 -8 -3 -14h160zM311 551h-102l-153 136h164z" glyph-name="egrave" horiz-adv-x="542" unicode="è"/>
<glyph d="M504 202h-315q12 -88 132 -89q63 0 134 16l28 -109q-77 -28 -165 -28q-186 0 -255 118q-33 57 -33 134q0 113 76 187q68 65 169 65q135 0 194 -105q35 -63 35 -152v-37zM350 296q-12 80 -77 81q-63 0 -80 -67q-2 -8 -3 -14h160zM479 687l-153 -136h-102l91 136h164z" glyph-name="eacute" horiz-adv-x="542" unicode="é"/>
<glyph d="M504 202h-315q12 -88 132 -89q63 0 134 16l28 -109q-77 -28 -165 -28q-186 0 -255 118q-33 57 -33 134q0 113 76 187q68 65 169 65q135 0 194 -105q35 -63 35 -152v-37zM350 296q-12 80 -77 81q-63 0 -80 -67q-2 -8 -3 -14h160zM447 549h-125l-48 59l-49 -59h-123 l117 138h108z" glyph-name="ecircumflex" horiz-adv-x="542" unicode="ê"/>
<glyph d="M504 202h-315q12 -88 132 -89q63 0 134 16l28 -109q-77 -28 -165 -28q-186 0 -255 118q-33 57 -33 134q0 113 76 187q68 65 169 65q135 0 194 -105q35 -63 35 -152v-37zM350 296q-12 80 -77 81q-63 0 -80 -67q-2 -8 -3 -14h160zM427 558h-119v125h119v-125zM238 558h-119 v125h119v-125z" glyph-name="edieresis" horiz-adv-x="542" unicode="ë"/>
<glyph d="M231 0h-165v487h165v-487zM201 551h-102l-153 136h164z" glyph-name="igrave" horiz-adv-x="296" unicode="ì"/>
<glyph d="M231 0h-165v487h165v-487zM350 687l-153 -136h-102l91 136h164z" glyph-name="iacute" horiz-adv-x="296" unicode="í"/>
<glyph d="M231 0h-165v487h165v-487zM318 549h-125l-48 59l-49 -59h-123l117 138h108z" glyph-name="icircumflex" horiz-adv-x="296" unicode="î"/>
<glyph d="M231 0h-165v487h165v-487zM303 558h-119v125h119v-125zM114 558h-119v125h119v-125z" glyph-name="idieresis" horiz-adv-x="296" unicode="ï"/>
<glyph d="M543 290q0 -160 -93 -240q-69 -58 -177 -58q-123 0 -193 96q-50 70 -50 156q0 116 68 190q58 62 141 62q71 0 119 -48q9 -11 16 -21q-10 53 -40 110l-39 -31l-18 23l43 33q-33 50 -95 104h155q15 -13 32 -31l44 34l18 -23l-43 -32q92 -114 109 -269q3 -28 3 -55zM377 244 q0 93 -57 119q-17 7 -35 7q-61 0 -83 -68q-8 -27 -8 -58q0 -84 48 -115q20 -12 43 -12q56 0 80 59q12 30 12 68z" glyph-name="eth" horiz-adv-x="579" unicode="ð"/>
<glyph d="M545 0h-164v279q0 56 -43 70q-10 3 -22 3q-51 0 -75 -49q-10 -22 -10 -45v-258h-165v487h159v-71q48 59 125 76q21 4 39 4q125 0 150 -127q6 -29 6 -63v-306zM485 665q-37 -114 -103 -115q-28 0 -90 30q-29 14 -41 14q-27 -1 -44 -47l-53 22q35 115 103 116q28 0 91 -31 q29 -14 41 -14q26 1 43 47z" glyph-name="ntilde" horiz-adv-x="606" unicode="ñ"/>
<glyph d="M542 244q0 -114 -79 -187q-72 -65 -177 -65q-130 0 -203 93q-53 69 -53 159q0 114 79 187q72 65 177 65q130 0 203 -93q53 -69 53 -159zM377 244q0 97 -58 121q-16 6 -33 6q-66 0 -86 -74q-6 -24 -6 -53q0 -94 56 -120q17 -7 36 -7q66 0 85 75q6 24 6 52zM316 551h-102 l-153 136h164z" glyph-name="ograve" horiz-adv-x="572" unicode="ò"/>
<glyph d="M542 244q0 -114 -79 -187q-72 -65 -177 -65q-130 0 -203 93q-53 69 -53 159q0 114 79 187q72 65 177 65q130 0 203 -93q53 -69 53 -159zM377 244q0 97 -58 121q-16 6 -33 6q-66 0 -86 -74q-6 -24 -6 -53q0 -94 56 -120q17 -7 36 -7q66 0 85 75q6 24 6 52zM498 687 l-153 -136h-102l91 136h164z" glyph-name="oacute" horiz-adv-x="572" unicode="ó"/>
<glyph d="M542 244q0 -114 -79 -187q-72 -65 -177 -65q-130 0 -203 93q-53 69 -53 159q0 114 79 187q72 65 177 65q130 0 203 -93q53 -69 53 -159zM377 244q0 97 -58 121q-16 6 -33 6q-66 0 -86 -74q-6 -24 -6 -53q0 -94 56 -120q17 -7 36 -7q66 0 85 75q6 24 6 52zM459 549h-125 l-48 59l-49 -59h-123l117 138h108z" glyph-name="ocircumflex" horiz-adv-x="572" unicode="ô"/>
<glyph d="M542 244q0 -114 -79 -187q-72 -65 -177 -65q-130 0 -203 93q-53 69 -53 159q0 114 79 187q72 65 177 65q130 0 203 -93q53 -69 53 -159zM377 244q0 97 -58 121q-16 6 -33 6q-66 0 -86 -74q-6 -24 -6 -53q0 -94 56 -120q17 -7 36 -7q66 0 85 75q6 24 6 52zM458 665 q-37 -114 -103 -115q-28 0 -90 30q-29 14 -41 14q-27 -1 -44 -47l-53 22q35 115 103 116q28 0 91 -31q29 -14 41 -14q26 1 43 47z" glyph-name="otilde" horiz-adv-x="572" unicode="õ"/>
<glyph d="M542 244q0 -114 -79 -187q-72 -65 -177 -65q-130 0 -203 93q-53 69 -53 159q0 114 79 187q72 65 177 65q130 0 203 -93q53 -69 53 -159zM377 244q0 97 -58 121q-16 6 -33 6q-66 0 -86 -74q-6 -24 -6 -53q0 -94 56 -120q17 -7 36 -7q66 0 85 75q6 24 6 52zM438 558h-119 v125h119v-125zM249 558h-119v125h119v-125z" glyph-name="odieresis" horiz-adv-x="572" unicode="ö"/>
<glyph d="M535 194h-489v109h489v-109zM368 423q0 -45 -39 -68q-19 -11 -39 -11q-45 0 -67 40q-10 19 -10 39q0 46 40 68q18 9 37 9q46 0 68 -39q10 -18 10 -38zM368 74q0 -45 -40 -67q-18 -10 -38 -10q-46 0 -68 40q-9 18 -9 37q0 46 40 68q18 9 37 9q46 0 68 -39q10 -18 10 -38z " glyph-name="divide" horiz-adv-x="581" unicode="÷"/>
<glyph d="M551 244q0 -106 -78 -181q-76 -71 -183 -71q-98 1 -168 59l-62 -59l-30 31l61 58q-61 71 -61 163q0 107 78 181q76 71 182 71q99 -1 170 -60l62 60l29 -31l-61 -58q61 -71 61 -163zM359 338q-25 32 -69 32q-66 0 -88 -70q-7 -26 -7 -56q0 -31 6 -56zM386 244q0 31 -6 55 l-158 -149q26 -32 68 -33q65 0 88 69q8 26 8 58z" glyph-name="oslash" horiz-adv-x="581" unicode="ø"/>
<glyph d="M538 0h-158v71q-47 -58 -125 -75q-21 -4 -40 -4q-127 0 -151 130q-5 28 -5 59v306h164v-279q0 -56 43 -70q10 -3 22 -3q51 0 75 49q10 22 10 45v258h165v-487zM341 551h-102l-153 136h164z" glyph-name="ugrave" horiz-adv-x="604" unicode="ù"/>
<glyph d="M538 0h-158v71q-47 -58 -125 -75q-21 -4 -40 -4q-127 0 -151 130q-5 28 -5 59v306h164v-279q0 -56 43 -70q10 -3 22 -3q51 0 75 49q10 22 10 45v258h165v-487zM502 687l-153 -136h-102l91 136h164z" glyph-name="uacute" horiz-adv-x="604" unicode="ú"/>
<glyph d="M538 0h-158v71q-47 -58 -125 -75q-21 -4 -40 -4q-127 0 -151 130q-5 28 -5 59v306h164v-279q0 -56 43 -70q10 -3 22 -3q51 0 75 49q10 22 10 45v258h165v-487zM473 549h-125l-48 59l-49 -59h-123l117 138h108z" glyph-name="ucircumflex" horiz-adv-x="604" unicode="û"/>
<glyph d="M538 0h-158v71q-47 -58 -125 -75q-21 -4 -40 -4q-127 0 -151 130q-5 28 -5 59v306h164v-279q0 -56 43 -70q10 -3 22 -3q51 0 75 49q10 22 10 45v258h165v-487zM462 558h-119v125h119v-125zM273 558h-119v125h119v-125z" glyph-name="udieresis" horiz-adv-x="604" unicode="ü"/>
<glyph d="M513 487l-232 -650h-160l58 164l-177 486h159l99 -309l94 309h159zM457 687l-153 -136h-102l91 136h164z" glyph-name="yacute" horiz-adv-x="520" unicode="ý"/>
<glyph d="M580 244q0 -124 -72 -196q-57 -56 -138 -56q-77 0 -132 59q-4 4 -7 8v-221h-165v828h165v-237q49 60 125 66q8 1 14 1q109 0 169 -95q41 -68 41 -157zM416 244q0 82 -48 114q-20 13 -44 13q-55 0 -80 -58q-13 -30 -13 -69q0 -90 55 -118q18 -9 38 -9q60 0 83 67 q9 27 9 60z" glyph-name="thorn" horiz-adv-x="610" unicode="þ"/>
</font>
</defs>
</svg>
